<?xml version="1.0" encoding="UTF-8"?>
<svg version="1.1" xmlns="http://www.w3.org/2000/svg" width="500" height="500">
<path d="M0 0 C7.82468175 -0.07011639 15.6492872 -0.12311925 23.47420597 -0.15543652 C27.1093019 -0.17096253 30.74417985 -0.19195512 34.37915039 -0.22631836 C37.89997372 -0.25938674 41.42059005 -0.27695062 44.94155693 -0.28463173 C46.91033137 -0.29271293 48.8790248 -0.31605209 50.84767151 -0.33988953 C62.98616339 -0.34210739 74.99376022 1.07323012 85.75 7.0625 C86.75546875 7.5894043 86.75546875 7.5894043 87.78125 8.12695312 C90.62159634 9.62949634 93.32518419 11.21678946 96 13 C96 13.66 96 14.32 96 15 C96.66 15 97.32 15 98 15 C98 15.66 98 16.32 98 17 C98.66 17 99.32 17 100 17 C114.59100113 33.36253548 116.35795062 53.47277724 117.625 74.3125 C117.80586443 77.1388694 117.98975819 79.96501697 118.17562866 82.7910614 C118.28938102 84.5349847 118.39981806 86.2791288 118.5062561 88.02351379 C118.74312278 91.78253337 119.0358214 95.509073 119.52075195 99.24487305 C119.92089513 102.3801773 120.18495756 105.43898144 120.31640625 108.59375 C120.37924805 110.04394531 120.37924805 110.04394531 120.44335938 111.5234375 C120.48267578 112.50570312 120.52199219 113.48796875 120.5625 114.5 C120.62727539 116.01980469 120.62727539 116.01980469 120.69335938 117.5703125 C120.79849192 120.0467679 120.90063837 122.52330749 121 125 C123.52090778 125.0272367 126.04151457 125.04695207 128.5625 125.0625 C129.26697266 125.07087891 129.97144531 125.07925781 130.69726562 125.08789062 C137.41931929 125.1550398 137.41931929 125.1550398 144 124 C146.05859697 121.38885028 146.05859697 121.38885028 147.375 117.9375 C147.95942686 116.64006572 148.5481375 115.34455443 149.140625 114.05078125 C149.44291016 113.37740723 149.74519531 112.7040332 150.05664062 112.01025391 C151.57181926 108.78148039 153.34417718 105.71287806 155.125 102.625 C159.67257767 94.65421269 164.0391843 86.58905556 168.39501953 78.51220703 C171.55677074 72.65203958 174.74889832 66.81111721 178 61 C178.66 61 179.32 61 180 61 C181.93447718 65.28461407 182.82191054 69.63369286 183.65625 74.23046875 C183.87794861 75.41616203 183.87794861 75.41616203 184.10412598 76.62580872 C184.57424028 79.14550405 185.03732523 81.66642908 185.5 84.1875 C185.9632283 86.68502025 186.42789277 89.18226982 186.89282227 91.67947388 C187.19141675 93.28591463 187.48879701 94.89258158 187.78491211 96.4994812 C188.67974347 101.3444546 189.62707682 106.17321067 190.68554688 110.9855957 C191 113 191 113 191 118 C201.56 118 212.12 118 223 118 C224.85625 112.43125 224.85625 112.43125 226.75 106.75 C242.875 58.375 242.875 58.375 259 10 C251.08 10 243.16 10 235 10 C233.515 15.445 233.515 15.445 232 21 C230.78678246 24.49986885 229.54792585 27.97022464 228.25 31.4375 C227.53676298 33.37072605 226.82454444 35.30432813 226.11328125 37.23828125 C225.58081787 38.68388428 225.58081787 38.68388428 225.03759766 40.15869141 C223.46428999 44.46696308 221.94703693 48.79405133 220.4375 53.125 C220.15511475 53.92993896 219.87272949 54.73487793 219.58178711 55.56420898 C218.07006647 59.88359576 216.59196562 64.21201076 215.1484375 68.5546875 C214.84107666 69.46589355 214.53371582 70.37709961 214.21704102 71.31591797 C213.62959764 73.05906304 213.05140702 74.80536373 212.48413086 76.55517578 C212.21737549 77.34134277 211.95062012 78.12750977 211.67578125 78.9375 C211.44802002 79.62714844 211.22025879 80.31679687 210.9855957 81.02734375 C209.7383278 83.52373332 208.03960903 85.12092183 206 87 C202.02804363 71.02182227 198.26976077 55.04412917 195.04248047 38.89770508 C193.72907588 32.35743842 192.26754726 25.89496006 190.55957031 19.44555664 C190 17 190 17 190 14 C186.24604774 13.32305779 183.50943802 13.43913087 180 15 C176.95346056 19.23720532 175.02452652 23.81727999 173.01513672 28.61621094 C171.30297049 32.63679561 169.38778127 36.55968857 167.5 40.5 C166.73777079 42.11434241 165.97604871 43.72892437 165.21484375 45.34375 C158.85762466 58.75872338 151.9589691 71.88964588 145 85 C144.34 85 143.68 85 143 85 C142.16262378 81.25602864 141.78658007 77.64015337 141.5625 73.8125 C140.66842091 60.58012942 138.96847558 47.47651938 137.04003906 34.35888672 C136.2595806 28.99900294 135.59507965 23.65933513 135.2109375 18.25390625 C134.95182588 15.48525057 134.45715315 12.7429189 134 10 C122.12 10.495 122.12 10.495 110 11 C110 11.66 110 12.32 110 13 C111.98 13.495 111.98 13.495 114 14 C115.03026944 20.69675136 115.10152799 27.2314676 115 34 C114.34 34 113.68 34 113 34 C112.63648438 33.28714844 112.27296875 32.57429688 111.8984375 31.83984375 C108.76567991 25.87153891 105.48051139 21.0139056 101 16 C101 15.34 101 14.68 101 14 C100.34 14 99.68 14 99 14 C99 13.34 99 12.68 99 12 C98.4225 11.71125 97.845 11.4225 97.25 11.125 C95.16666667 10.08333333 93.08333333 9.04166667 91 8 C91 7.34 91 6.68 91 6 C101.56585121 -1.24258889 111.41706333 -0.7225606 123.75 -0.375 C125.62235263 -0.34484261 127.49475241 -0.31747706 129.3671875 -0.29296875 C133.91264174 -0.22747599 138.45578874 -0.12428067 143 0 C145.20902515 10.63112883 146.34368035 21.41571235 147.625 32.1875 C147.85646738 34.11266672 148.08823571 36.03779728 148.3203125 37.96289062 C148.88368027 42.64151725 149.44296825 47.32061496 150 52 C150.26103516 51.44763672 150.52207031 50.89527344 150.79101562 50.32617188 C155.78480814 39.7701166 160.81727365 29.24414332 166.11328125 18.8359375 C168.51961267 13.94356182 170.74389069 8.96344049 173 4 C181.25 4 189.5 4 198 4 C199.44863495 8.34590485 200.48855434 12.11925927 201.3125 16.5625 C202.72161304 24.00399064 204.49304415 31.34234405 206.37426758 38.67797852 C207.59435124 43.60083617 208.25499112 47.92774412 208 53 C208.66 53 209.32 53 210 53 C210.11730469 52.32066406 210.23460937 51.64132813 210.35546875 50.94140625 C211.10817738 47.50631778 212.18151279 44.26743448 213.3125 40.9375 C213.7671152 39.59641792 214.22153999 38.25527128 214.67578125 36.9140625 C215.01343506 35.92067871 215.01343506 35.92067871 215.35791016 34.90722656 C216.26358356 32.21706663 217.12701227 29.51341715 218 26.8125 C219.66871886 21.78607558 221.63633045 16.93509842 223.75390625 12.08203125 C225.35399418 8.12444699 226.65008317 4.0497505 228 0 C242.52 0 257.04 0 272 0 C273.3392576 4.0177728 272.01744855 6.60195168 270.6484375 10.421875 C270.39252838 11.15891663 270.13661926 11.89595825 269.87295532 12.65533447 C269.04878442 15.0232861 268.2122701 17.3866521 267.375 19.75 C266.83378158 21.29527413 266.29340818 22.8408445 265.75390625 24.38671875 C264.94817992 26.6947778 264.1420232 29.00267237 263.33328247 31.30967712 C258.13047916 46.16298768 253.33918636 61.15408995 248.50585938 76.13061523 C247.65921052 78.75298107 246.81023901 81.37458602 245.9609375 83.99609375 C245.7077475 84.78269882 245.4545575 85.56930389 245.19369507 86.37974548 C243.79724996 90.6841395 242.30089637 94.93093419 240.69116211 99.16004944 C239.71362514 101.7623618 238.83173038 104.39281329 237.95703125 107.03125 C237.60576172 108.08828125 237.25449219 109.1453125 236.89257812 110.234375 C236.53615234 111.31203125 236.17972656 112.3896875 235.8125 113.5 C235.44447266 114.60859375 235.07644531 115.7171875 234.69726562 116.859375 C233.79680085 119.57246367 232.8977481 122.28601144 232 125 C232.93070312 125.14308594 233.86140625 125.28617187 234.8203125 125.43359375 C237.79747542 125.96392375 240.24411238 126.78416722 243 128 C243 128.99 243 129.98 243 131 C242.37544922 130.91435791 241.75089844 130.82871582 241.10742188 130.74047852 C238.23834739 130.34733461 235.3691746 129.95491256 232.5 129.5625 C231.51773437 129.42779297 230.53546875 129.29308594 229.5234375 129.15429688 C227.57729447 128.88832399 225.63075979 128.62520054 223.68383789 128.36499023 C222.06926904 128.14541592 220.45590661 127.9162127 218.84545898 127.66821289 C213.51747804 126.88565105 208.41451258 127.01406248 203.0625 127.3125 C202.1451709 127.36027588 201.2278418 127.40805176 200.28271484 127.45727539 C192.47246373 127.90050139 184.739035 128.69799786 176.98779297 129.73828125 C175.00580206 129.99923608 173.02042596 130.23403831 171.03515625 130.46875 C164.23810102 131.29681764 157.74079505 132.45302955 151.12890625 134.22265625 C147.60519457 135.09808524 144.07504848 135.741583 140.5 136.375 C134.59440104 137.44591225 128.82548628 138.76895253 123.01953125 140.28125 C112.21327123 143.03340563 101.32705277 145.30709785 90.39233398 147.48486328 C87.19908704 148.12268559 84.00875006 148.77384143 80.81835938 149.42578125 C41.74342257 157.31038503 -6.9070174 166.07732735 -42.42578125 142.76953125 C-43.27527344 142.18558594 -44.12476562 141.60164062 -45 141 C-45.99 140.34 -46.98 139.68 -48 139 C-48 138.34 -48 137.68 -48 137 C-48.66 137 -49.32 137 -50 137 C-50 136.34 -50 135.68 -50 135 C-50.66 135 -51.32 135 -52 135 C-59.08592943 126.65084081 -61.63705657 117.96168043 -61.34765625 107.140625 C-60.83160352 102.47875543 -59.37365893 99.00554944 -57 95 C-56.5875 94.26265625 -56.175 93.5253125 -55.75 92.765625 C-50.22267998 83.65810906 -42.51414645 77.50693952 -33.25 72.5 C-32.62424072 72.16154053 -31.99848145 71.82308105 -31.35375977 71.47436523 C-27.58644611 69.5414216 -24.20551657 68.46441287 -20 68 C-21.26190138 71.78570414 -22.54855815 72.21831571 -25.9375 74.1875 C-26.83339844 74.71730469 -27.72929688 75.24710937 -28.65234375 75.79296875 C-31 77 -31 77 -33 77 C-33 77.66 -33 78.32 -33 79 C-33.66 79 -34.32 79 -35 79 C-35 79.66 -35 80.32 -35 81 C-35.66 81 -36.32 81 -37 81 C-37.2475 81.556875 -37.495 82.11375 -37.75 82.6875 C-39 85 -39 85 -40.875 87.1875 C-46.48926495 94.61814478 -48.19113122 101.7315102 -47 111 C-44.91142833 119.18459025 -39.33244968 126.00521911 -32.45703125 130.7578125 C-14.87572096 140.85501524 4.04025356 142.20573474 23.875 142.125 C25.72242798 142.11883667 25.72242798 142.11883667 27.60717773 142.11254883 C40.97502749 142.03037486 53.84125422 141.02749405 67.0234375 138.8203125 C71.25767641 138.11153408 75.49986115 137.48188405 79.74902344 136.86987305 C87.64185672 135.73104996 95.38801145 134.39044686 103.15234375 132.55078125 C105.8614176 132.026804 108.25249963 131.95926847 111 132 C110.94465088 131.37657715 110.88930176 130.7531543 110.83227539 130.11083984 C109.79655802 118.4129456 108.77177612 106.71881106 108 95 C107.16855469 96.40765625 107.16855469 96.40765625 106.3203125 97.84375 C105.5889246 99.06272984 104.85713286 100.28146745 104.125 101.5 C103.76019531 102.12003906 103.39539063 102.74007812 103.01953125 103.37890625 C102.0677482 104.95367458 101.03889741 106.48129053 100 108 C99.34 108 98.68 108 98 108 C97.62875 108.86625 97.62875 108.86625 97.25 109.75 C95.81700012 112.32939979 94.21575324 114.06121592 92 116 C91.34 116 90.68 116 90 116 C90 116.66 90 117.32 90 118 C89.34 118 88.68 118 88 118 C88 118.66 88 119.32 88 120 C70.8781693 133.97511587 48.86065248 137.72771955 27.3762207 137.41162109 C24.80314542 137.37486638 22.23151552 137.37060569 19.65820312 137.37109375 C7.14594707 137.31919646 -5.72609184 137.09748154 -17.5625 132.625 C-18.65691406 132.22539062 -19.75132813 131.82578125 -20.87890625 131.4140625 C-24.21313475 129.90343582 -27.07887067 128.20512319 -30 126 C-30 125.34 -30 124.68 -30 124 C-30.66 124 -31.32 124 -32 124 C-32 123.34 -32 122.68 -32 122 C-32.66 122 -33.32 122 -34 122 C-38.9900013 114.26549798 -40.58281996 107.1301688 -39 98 C-37.23688368 93.04336033 -34.685176 88.50725971 -32 84 C-31.34 84 -30.68 84 -30 84 C-29.75121094 83.42636719 -29.50242187 82.85273438 -29.24609375 82.26171875 C-27.81810133 79.66984535 -26.16052094 77.89489323 -24.0625 75.8125 C-23.37285156 75.11769531 -22.68320313 74.42289062 -21.97265625 73.70703125 C-20 72 -20 72 -17 71 C-17 75.51374334 -17.71913543 75.88063737 -20.48828125 79.0703125 C-27.97512781 88.62716573 -29.01304961 97.29222415 -28 109 C-27.7031164 110.67354385 -27.38591361 112.34471767 -27 114 C-26.34 114 -25.68 114 -25 114 C-24.38125 114.78375 -23.7625 115.5675 -23.125 116.375 C-21.11147826 118.86229156 -19.91357141 119.85538266 -17 121 C-16.86335938 119.99324219 -16.72671875 118.98648438 -16.5859375 117.94921875 C-16.0310137 114.20903236 -15.36416954 110.52026977 -14.625 106.8125 C-14.39039063 105.62269531 -14.15578125 104.43289062 -13.9140625 103.20703125 C-13.21302558 99.84464276 -12.38324165 96.52349061 -11.53515625 93.1953125 C-10.09987795 87.51496357 -8.91828988 81.81466327 -7.8125 76.0625 C-5.57858459 64.65616917 -3.15392747 53.2954346 -0.6875 41.9375 C-0.50474518 41.09575226 -0.32199036 40.25400452 -0.13369751 39.38674927 C0.90822768 34.5905885 1.95294993 29.79504443 3 25 C0.36 25 -2.28 25 -5 25 C-4.70985077 18.83432876 -3.5997145 13.06993058 -1.953125 7.12890625 C-1.76572754 6.44026489 -1.57833008 5.75162354 -1.38525391 5.04211426 C-0.92707742 3.36043146 -0.46403962 1.68007439 0 0 Z M8 10 C7.40929986 11.94603274 7.40929986 11.94603274 7 14 C8.96822886 15.96822886 12.34808709 15.66248381 15 16 C14.79636841 16.87398437 14.79636841 16.87398437 14.58862305 17.765625 C12.07107878 28.60715291 9.62389093 39.43492036 7.67578125 50.39453125 C7.18577595 53.00883701 6.65623055 55.58732887 6.0703125 58.1796875 C4.54865518 64.92233924 3.26203257 71.71332772 1.94335938 78.49804688 C0.91895165 83.69029412 -0.18086632 88.83696556 -1.4921875 93.96484375 C-3.12419175 100.34983117 -4.42395877 106.7834174 -5.6875 113.25 C-6.02491211 114.95736328 -6.02491211 114.95736328 -6.36914062 116.69921875 C-6.91544842 119.46562844 -7.4590295 122.23254259 -8 125 C2.37257769 126.86122568 12.43836188 127.34295765 22.94970703 127.31567383 C25.49685148 127.31250392 28.04284086 127.33610785 30.58984375 127.36132812 C48.60459723 127.43242391 67.91394332 124.37188047 82 112 C82 111.34 82 110.68 82 110 C82.556875 109.773125 83.11375 109.54625 83.6875 109.3125 C86.66159588 107.62449964 88.72008865 105.53323483 91 103 C91 102.34 91 101.68 91 101 C91.66 101 92.32 101 93 101 C93.66 99.02 94.32 97.04 95 95 C95.66 95 96.32 95 97 95 C105.47130518 78.61288506 109.35193908 60.44607549 103.875 42.5 C101.89054521 36.52629715 99.38198667 30.62614429 95 26 C94.34 26 93.68 26 93 26 C93 25.34 93 24.68 93 24 C92.34 24 91.68 24 91 24 C91 23.34 91 22.68 91 22 C79.27749308 12.30052619 66.55978229 9.67787447 51.75 9.8046875 C50.49614502 9.8075174 49.24229004 9.81034729 47.95043945 9.81326294 C44.6427535 9.82251856 41.33526818 9.84043783 38.02764893 9.8626709 C34.64215531 9.88325636 31.25663213 9.89229161 27.87109375 9.90234375 C21.24731832 9.92433126 14.62367555 9.95775424 8 10 Z M174 89 C172.10269382 92.62423091 170.20743162 96.24952707 168.3125 99.875 C167.51682617 101.39480469 167.51682617 101.39480469 166.70507812 102.9453125 C163.40359147 109.26472254 160.16304287 115.61013966 157 122 C165.09925363 121.42883593 173.01091681 120.45899923 181 119 C181.32610795 112.15173312 180.11185667 106.13910694 178.5 99.5 C178.26152344 98.48679687 178.02304687 97.47359375 177.77734375 96.4296875 C177.19277966 93.95113574 176.60018531 91.47480666 176 89 C175.34 89 174.68 89 174 89 Z " fill="#131313" transform="translate(134,134)"/>
<path d="M0 0 C5.17038426 -0.63994933 8.76386999 1.59557823 13.1875 3.9375 C13.91130859 4.31068359 14.63511719 4.68386719 15.38085938 5.06835938 C17.25808077 6.03752949 19.12945096 7.01801365 21 8 C21.66 8.33 22.32 8.66 23 9 C23 9.66 23 10.32 23 11 C23.680625 11.165 24.36125 11.33 25.0625 11.5 C30.33309303 14.19136666 33.7617265 19.14258976 37 24 C37.54625925 27.39255742 37.52689674 30.60504675 37 34 C32.98295312 39.55297657 27.14898579 42.01282221 20.60641479 43.59204102 C15.42780576 44.40260274 10.18261506 44.21225009 4.95457649 44.15032959 C2.73330467 44.12439459 0.51227745 44.11166355 -1.7091217 44.10205078 C-7.23966005 44.07553629 -12.76997217 44.02781907 -18.300354 43.97924805 C-57.35212718 43.64192038 -93.21062755 48.11861849 -131.14967346 57.34385681 C-136.41849783 58.62403154 -141.6954339 59.86545974 -146.9765625 61.09375 C-151.57092339 62.16375286 -156.14115789 63.28345852 -160.68359375 64.55859375 C-167.08253823 66.34325128 -173.55964357 67.71380715 -180.0625 69.0625 C-181.33150146 69.32635498 -182.60050293 69.59020996 -183.90795898 69.86206055 C-192.48086795 71.59930441 -200.97944077 72.92558722 -209.69140625 73.67578125 C-212.79878053 73.89279153 -212.79878053 73.89279153 -214.95330811 74.51019287 C-217.05722241 75.01369427 -218.89557167 75.13972575 -221.05566406 75.16113281 C-221.84459045 75.17074036 -222.63351685 75.1803479 -223.4463501 75.19024658 C-224.29421082 75.19449646 -225.14207153 75.19874634 -226.015625 75.203125 C-226.90425232 75.20882507 -227.79287964 75.21452515 -228.70843506 75.22039795 C-230.59467382 75.22984213 -232.48092904 75.23637962 -234.3671875 75.24023438 C-237.19822901 75.24982462 -240.0285074 75.28080379 -242.859375 75.3125 C-268.37570533 75.46130167 -290.4790473 69.8687576 -309.78125 52.38671875 C-311 51 -311 51 -311 49 C-311.66 49 -312.32 49 -313 49 C-319.00607328 41.24358536 -323.71727163 31.17504803 -322.75 21.25 C-322.52655702 19.82890265 -322.28692049 18.40965282 -322 17 C-320 18 -320 18 -319.2109375 20.3359375 C-318.93507813 21.33882812 -318.65921875 22.34171875 -318.375 23.375 C-313.73460486 37.7397526 -303.00044648 46.88201654 -289.92578125 53.6875 C-251.64235657 70.86137275 -201.00942822 63.09890184 -161.859375 52.703125 C-158.54966337 51.88926148 -155.23036678 51.2861754 -151.875 50.6875 C-144.6080774 49.38759403 -137.43638702 47.74774552 -130.25 46.0625 C-100.30502111 39.08126485 -71.35618859 34.32160835 -40.5 34.6875 C-37.98959088 34.69904398 -35.47917297 34.70881331 -32.96875 34.71679688 C-21.62688577 34.77406044 -10.30720533 34.91112204 1.00927734 35.72599792 C10.16740422 36.3420526 18.87707024 35.50615082 27 31 C28.30408759 29.90930721 28.30408759 29.90930721 28.25 27.25 C27.97255433 23.64320635 26.97682889 21.96524334 25 19 C25 18.34 25 17.68 25 17 C24.34 17 23.68 17 23 17 C23 16.34 23 15.68 23 15 C22.43667969 14.73832031 21.87335938 14.47664062 21.29296875 14.20703125 C18.78781616 12.88830527 16.60280596 11.35083009 14.3125 9.6875 C9.71495655 6.42208281 4.99121475 3.61616812 0 1 C0 0.67 0 0.34 0 0 Z " fill="#181818" transform="translate(389,233)"/>
<path d="M0 0 C10.28530332 2.4027143 16.67914259 6.61396537 22.87109375 15.16796875 C25.54043432 19.49987438 25.70927783 24.07490228 25 29 C22.4669888 34.99093934 18.6293738 39.5232228 12.54296875 41.99975586 C5.01826571 44.64964501 -1.99433547 45.82463718 -9.9375 46.3125 C-11.01451172 46.39822266 -12.09152344 46.48394531 -13.20117188 46.57226562 C-18.55407461 46.94706492 -23.66273988 46.97512622 -29.01171875 46.52294922 C-36.13154346 45.93817524 -43.20662087 45.83839773 -50.34765625 45.83203125 C-51.69363944 45.82880165 -53.03962232 45.82543645 -54.38560486 45.82194519 C-57.18993948 45.81600981 -59.99424355 45.81409933 -62.79858398 45.81469727 C-65.62872749 45.81477826 -68.45870821 45.807869 -71.28881836 45.79418945 C-87.28277284 45.71813925 -103.12419344 45.81460858 -119 48 C-120.20245361 48.16201904 -121.40490723 48.32403809 -122.64379883 48.4909668 C-125.72844207 48.93582099 -128.80124427 49.42325174 -131.875 49.9375 C-132.94250488 50.11152344 -134.01000977 50.28554688 -135.10986328 50.46484375 C-140.40083064 51.34250383 -145.64527173 52.30369966 -150.875 53.5 C-158.80529695 55.30367693 -166.84772279 56.35769551 -174.89331055 57.51513672 C-181.34746232 58.44694061 -187.7745415 59.44306353 -194.1875 60.625 C-209.45659702 63.38882065 -224.51767656 64.47336123 -240 65 C-240 64.34 -240 63.68 -240 63 C-235.10740666 61.5039734 -230.30026892 60.50088327 -225.23828125 59.75 C-212.76005127 57.77684775 -200.49246367 54.83311625 -188.1875 52 C-185.82628099 51.46045975 -183.46495337 50.92139461 -181.10351562 50.3828125 C-176.75348388 49.38960095 -172.40398217 48.39415753 -168.05541992 47.39453125 C-167.07280182 47.16866333 -166.09018372 46.94279541 -165.07778931 46.71008301 C-162.88793671 46.20485768 -160.69868817 45.69701105 -158.50985718 45.18737793 C-157.35941925 44.91993774 -156.20898132 44.65249756 -155.02368164 44.37695312 C-153.98095596 44.13368286 -152.93823029 43.8904126 -151.86390686 43.63977051 C-148.01228723 42.77935403 -144.14849444 42.10573851 -140.25 41.5 C-138.70167132 41.25224763 -137.15349746 41.00352608 -135.60546875 40.75390625 C-134.8376709 40.63031738 -134.06987305 40.50672852 -133.27880859 40.37939453 C-130.43490301 39.90591807 -127.60298668 39.37715697 -124.76953125 38.84529114 C-107.77612381 35.70543485 -91.04500141 34.69043317 -73.77294922 34.79418945 C-70.60766604 34.81260083 -67.44267533 34.8146971 -64.27734375 34.81445312 C-54.99668623 34.83093944 -45.79286724 34.92538123 -36.54638672 35.77075195 C-22.40581491 37.04381014 -5.79074677 36.91709197 7.21484375 30.8046875 C9 30 9 30 11 30 C12.42871248 25.4671784 13.29240319 22.11113212 12.0625 17.4375 C8.96898244 11.49905111 3.78431247 6.59293997 -1 2 C-0.67 1.34 -0.34 0.68 0 0 Z " fill="#1A1A1A" transform="translate(434,248)"/>
<path d="M0 0 C7.19975074 0.08643439 13.17125358 0.8300056 19.58007812 4.32128906 C20.67320312 4.85753906 21.76632813 5.39378906 22.89257812 5.94628906 C30.12013946 12.33343629 33.22172648 20.76683852 33.83007812 30.19628906 C33.48485147 40.05442799 30.28233083 47.7152794 25.58007812 56.32128906 C24.92007813 56.32128906 24.26007813 56.32128906 23.58007812 56.32128906 C23.19529297 57.20300781 23.19529297 57.20300781 22.80273438 58.10253906 C19.07544708 64.86643421 11.73703337 69.04251451 4.58007812 71.32128906 C-5.85399538 74.13479116 -16.71299875 73.51172841 -27.41992188 73.32128906 C-28.91264519 69.3857003 -27.95351834 65.88261876 -27.09179688 61.91503906 C-26.94212463 61.19449341 -26.79245239 60.47394775 -26.63824463 59.73156738 C-26.15695793 57.42634279 -25.66334754 55.12394216 -25.16992188 52.82128906 C-24.85276584 51.30321635 -24.53635225 49.78498832 -24.22070312 48.26660156 C-22.86617621 41.79921188 -21.46294173 35.35898031 -19.81835938 28.95800781 C-18.35068799 23.2279905 -17.28951888 17.4621275 -16.29492188 11.63378906 C-15.96258308 9.69176353 -15.62684025 7.75031635 -15.28710938 5.80957031 C-15.1438623 4.96950439 -15.00061523 4.12943848 -14.85302734 3.26391602 C-13.65688696 -2.10118489 -4.40872103 0.01272562 0 0 Z M-5.41992188 10.32128906 C-7.63082013 19.38933875 -9.69355314 28.44353568 -11.34057617 37.63183594 C-12.26628904 42.71597013 -13.48699116 47.6830415 -14.79101562 52.68066406 C-15.63413552 56.22072025 -16.07187718 59.70162422 -16.41992188 63.32128906 C-5.73084714 63.9330644 3.30567596 63.07556864 11.89257812 56.19628906 C18.71028813 49.63056834 22.86429629 41.7976181 23.58007812 32.32128906 C23.55501273 25.39070818 21.70805237 19.4492633 16.76757812 14.50878906 C11.4928395 10.8888704 7.04707532 10.06686055 0.70507812 10.19628906 C-0.44734375 10.21433594 -1.59976563 10.23238281 -2.78710938 10.25097656 C-3.6559375 10.27417969 -4.52476562 10.29738281 -5.41992188 10.32128906 Z " fill="#161616" transform="translate(183.419921875,165.6787109375)"/>
<path d="M0 0 C3.3 0 6.6 0 10 0 C10.13277344 0.78246094 10.26554688 1.56492187 10.40234375 2.37109375 C10.57894531 3.38300781 10.75554687 4.39492188 10.9375 5.4375 C11.11152344 6.44683594 11.28554687 7.45617187 11.46484375 8.49609375 C11.74751097 10.9287438 11.74751097 10.9287438 13 12 C14.98 8.04 16.96 4.08 19 0 C21.97 0 24.94 0 28 0 C28.99 4.29 29.98 8.58 31 13 C32.98 8.71 34.96 4.42 37 0 C40.3 0 43.6 0 47 0 C45.35858134 5.47734269 42.97331468 10.48872351 40.5 15.625 C40.09652344 16.470625 39.69304687 17.31625 39.27734375 18.1875 C37.54725549 21.80755265 35.79443307 25.41113386 34 29 C30.7 29 27.4 29 24 29 C22.86235649 24.73383684 22 21.43513689 22 17 C21.34 17 20.68 17 20 17 C19.731875 18.051875 19.46375 19.10375 19.1875 20.1875 C17.0952381 26.9047619 17.0952381 26.9047619 15 29 C11.37 29 7.74 29 4 29 C2.68 19.43 1.36 9.86 0 0 Z " fill="#151515" transform="translate(234,328)"/>
<path d="M0 0 C3.05248286 -0.29386117 5.95555549 -0.42055784 9 0 C11.41015625 2.1875 11.41015625 2.1875 13.0625 5 C13.63097656 5.928125 14.19945312 6.85625 14.78515625 7.8125 C15.38650391 8.8953125 15.38650391 8.8953125 16 10 C17.37977501 6.66273931 18.38881631 3.56523819 19 0 C22.3 0 25.6 0 29 0 C27.91779132 9.7168524 26.74337372 19.37435149 25 29 C21.84133212 29.56856022 19.13456821 29.77087915 16 29 C12.853844 25.79558185 10.99083292 21.98166584 9 18 C7.42734206 19.57265794 7.69242023 21.32840029 7.5 23.5 C7.11111111 27.88888889 7.11111111 27.88888889 6 29 C4.48071962 29.07179964 2.95832518 29.08392007 1.4375 29.0625 C0.61121094 29.05347656 -0.21507812 29.04445313 -1.06640625 29.03515625 C-2.02353516 29.01775391 -2.02353516 29.01775391 -3 29 C-4.44712775 26.1057445 -3.71320823 24.07959274 -3.22265625 20.8984375 C-3.03896484 19.68671875 -2.85527344 18.475 -2.66601562 17.2265625 C-2.46685547 15.95554687 -2.26769531 14.68453125 -2.0625 13.375 C-1.86720703 12.09625 -1.67191406 10.8175 -1.47070312 9.5 C-0.98611091 6.33242159 -0.49563403 3.16586632 0 0 Z " fill="#151515" transform="translate(309,328)"/>
<path d="M0 0 C3.24992446 -0.05819424 6.49971435 -0.09366116 9.75 -0.125 C10.67039063 -0.14175781 11.59078125 -0.15851563 12.5390625 -0.17578125 C13.87324219 -0.18544922 13.87324219 -0.18544922 15.234375 -0.1953125 C16.05131836 -0.20578613 16.86826172 -0.21625977 17.70996094 -0.22705078 C20.21887518 0.02170084 21.83395625 0.74299871 24 2 C24 2.66 24 3.32 24 4 C24.66 4 25.32 4 26 4 C28.46658066 8.38064726 28.64022272 12.0646122 28 17 C26.6170292 21.71203825 25.00545553 24.24987725 21.03125 27.21484375 C16.22563999 29.79977918 11.38741055 29.43926545 6.0625 29.25 C5.09248047 29.23195313 4.12246094 29.21390625 3.12304688 29.1953125 C0.74765106 29.14850667 -1.62563844 29.08296385 -4 29 C-3.31728282 19.21637636 -1.68796625 9.65007119 0 0 Z M9 8 C8.66127487 9.41538717 8.32925376 10.83237963 8 12.25 C7.814375 13.03890625 7.62875 13.8278125 7.4375 14.640625 C6.87845172 17.25556002 6.87845172 17.25556002 7 21 C12.1693489 20.59443869 12.1693489 20.59443869 17 19 C18.37630292 13.16319127 18.37630292 13.16319127 16 8 C12.41642759 7.74984127 12.41642759 7.74984127 9 8 Z " fill="#121212" transform="translate(128,328)"/>
<path d="M0 0 C3.17625 -0.0825 6.3525 -0.165 9.625 -0.25 C10.6145166 -0.28641602 11.6040332 -0.32283203 12.62353516 -0.36035156 C18.41781752 -0.43297042 21.59070069 0.15599548 26 4 C28.48162793 8.06084571 28.44296224 12.37245828 28 17 C26.71298537 22.03105718 23.56098982 25.43465066 19.14746094 28.13232422 C16.61835049 29.15420445 14.73814996 29.22851402 12.015625 29.1953125 C11.17290039 29.19031738 10.33017578 29.18532227 9.46191406 29.18017578 C7.8720166 29.15286377 7.8720166 29.15286377 6.25 29.125 C2.8675 29.08375 -0.515 29.0425 -4 29 C-2.68 19.43 -1.36 9.86 0 0 Z M10 8 C8.57775885 11.98227523 7.48935613 15.79153729 7 20 C7.33 20.33 7.66 20.66 8 21 C12.71469369 20.70213679 12.71469369 20.70213679 16.875 18.6875 C18.23158572 16.65262142 18.85523761 15.46096071 19 13 C18.07976712 10.16071467 18.07976712 10.16071467 16 8 C12.87364791 7.58253392 12.87364791 7.58253392 10 8 Z " fill="#121212" transform="translate(348,328)"/>
<path d="M0 0 C3.08325358 -0.0582253 6.16636505 -0.09367134 9.25 -0.125 C10.55904297 -0.15013672 10.55904297 -0.15013672 11.89453125 -0.17578125 C12.73886719 -0.18222656 13.58320313 -0.18867188 14.453125 -0.1953125 C15.22817383 -0.20578613 16.00322266 -0.21625977 16.80175781 -0.22705078 C19.29148761 0.03010701 20.86953531 0.70629648 23 2 C25.29637664 4.98528963 25.46117088 8.27721539 25.40625 11.984375 C24.9219298 14.38734829 24.10889234 15.36075253 22.4375 17.125 C19.60083215 19.80247601 19.60083215 19.80247601 20.1875 23.375 C20.455625 24.24125 20.72375 25.1075 21 26 C21.66 26 22.32 26 23 26 C23 26.99 23 27.98 23 29 C19.37 29 15.74 29 12 29 C9 23.25 9 23.25 9 21 C8.34 21.33 7.68 21.66 7 22 C6.59270772 24.32156597 6.25561323 26.6568787 6 29 C2.7 29 -0.6 29 -4 29 C-4.15657393 23.04338319 -3.60608944 17.54616257 -2.5625 11.6875 C-2.42779297 10.89021484 -2.29308594 10.09292969 -2.15429688 9.27148438 C-1.60147355 6.06510906 -1.03161457 3.0948437 0 0 Z M8 8 C8 9.98 8 11.96 8 14 C9.98 13.67 11.96 13.34 14 13 C14.59070014 11.05396726 14.59070014 11.05396726 15 9 C13.87465895 7.64381501 13.87465895 7.64381501 10.9375 7.9375 C9.968125 7.958125 8.99875 7.97875 8 8 Z " fill="#141414" transform="translate(201,328)"/>
<path d="M0 0 C7.92 0 15.84 0 24 0 C23 6 23 6 22 8 C17.71 8 13.42 8 9 8 C9 8.66 9 9.32 9 10 C12.63 10 16.26 10 20 10 C20 12.64 20 15.28 20 18 C15.38926889 19.29676812 11.66159911 18.71109139 7 18 C7 18.99 7 19.98 7 21 C11.29 21 15.58 21 20 21 C21 23 21 23 20 29 C12.41 29 4.82 29 -3 29 C-3 17.75 -3 17.75 -2.34375 13.8671875 C-2.22193359 13.12065918 -2.10011719 12.37413086 -1.97460938 11.60498047 C-1.73967773 10.25364014 -1.73967773 10.25364014 -1.5 8.875 C-1.005 5.94625 -0.51 3.0175 0 0 Z " fill="#151515" transform="translate(167,328)"/>
<path d="M0 0 C0 0.66 0 1.32 0 2 C-5.16608451 1.40365561 -9.87622293 0.20971809 -14.8125 -1.4375 C-20.83559666 -3.37561152 -26.73912583 -5.01144092 -33 -6 C-34.01835937 -6.17273438 -35.03671875 -6.34546875 -36.0859375 -6.5234375 C-56.90071954 -9.80998203 -77.99714407 -9.11754655 -99 -9 C-98 -11 -98 -11 -96.09936523 -11.68603516 C-64.64406856 -19.15164319 -27.14651049 -20.76645503 0 0 Z " fill="#1E1E1E" transform="translate(407,317)"/>
<path d="M0 0 C3.3 0 6.6 0 10 0 C9.31349156 6.55182328 8.43589612 13.05142867 7.4375 19.5625 C7.29892578 20.47580078 7.16035156 21.38910156 7.01757812 22.33007812 C6.67997126 24.55362678 6.34021278 26.77684857 6 29 C2.7 29 -0.6 29 -4 29 C-4.2846241 22.65821927 -3.19681781 16.77705736 -2 10.5625 C-1.80921875 9.54478516 -1.6184375 8.52707031 -1.421875 7.47851562 C-0.95353687 4.98461509 -0.47753871 2.49215515 0 0 Z " fill="#181818" transform="translate(289,328)"/>
<path d="M0 0 C-1.32 0.99 -2.64 1.98 -4 3 C-1.36 3.33 1.28 3.66 4 4 C4 4.33 4 4.66 4 5 C-8.64789845 6.86638043 -21.23054302 7.56564071 -34 8 C-34 7.34 -34 6.68 -34 6 C-28.64307484 4.3478642 -23.3472771 3.29988489 -17.8125 2.4375 C-16.23544134 2.18768161 -14.65860911 1.93642865 -13.08203125 1.68359375 C-12.39343018 1.57587646 -11.7048291 1.46815918 -10.99536133 1.35717773 C-8.97406015 1.02140519 -8.97406015 1.02140519 -6.91674805 0.46118164 C-4.57373985 -0.10256088 -2.40061833 -0.06668384 0 0 Z " fill="#333333" transform="translate(228,305)"/>
<path d="M0 0 C0 0.66 0 1.32 0 2 C4.95 2 9.9 2 15 2 C15 2.33 15 2.66 15 3 C4.312837 3.79585256 -6.28399677 4.12825004 -17 4 C-16 2 -16 2 -14.1796875 1.3671875 C-9.33738332 0.3330683 -4.95047466 -0.2106585 0 0 Z " fill="#454545" transform="translate(325,304)"/>
<path d="M0 0 C4.26488247 -0.3118744 6.98566073 0.65574011 10.8125 2.5 C12.27623047 3.19609375 12.27623047 3.19609375 13.76953125 3.90625 C14.50558594 4.2671875 15.24164063 4.628125 16 5 C15.01 6.485 15.01 6.485 14 8 C9.02790438 6.23570801 4.56561939 3.6060834 0 1 C0 0.67 0 0.34 0 0 Z " fill="#616161" transform="translate(389,233)"/>
<path d="M0 0 C-1.32291145 3.96873434 -2.91149738 4.29905037 -6.5625 6.1875 C-7.57441406 6.71730469 -8.58632812 7.24710938 -9.62890625 7.79296875 C-10.41136719 8.19128906 -11.19382812 8.58960938 -12 9 C-12 7.35 -12 5.7 -12 4 C-10.3767313 3.3291288 -8.75132422 2.66342971 -7.125 2 C-6.22007813 1.62875 -5.31515625 1.2575 -4.3828125 0.875 C-2 0 -2 0 0 0 Z " fill="#494949" transform="translate(114,202)"/>
<path d="M0 0 C0 0.33 0 0.66 0 1 C-1.98 1 -3.96 1 -6 1 C-6 1.66 -6 2.32 -6 3 C-8.70879335 4.35439668 -11.00933268 4.06501451 -14 4 C-14 3.34 -14 2.68 -14 2 C-9.126739 0.4087311 -5.19209404 -0.21192221 0 0 Z " fill="#5D5D5D" transform="translate(208,309)"/>
<path d="M0 0 C3.62528568 -0.20140476 5.86501708 0.14223235 9 2 C9 2.66 9 3.32 9 4 C3.46153846 3.38461538 3.46153846 3.38461538 1.125 1.4375 C0.75375 0.963125 0.3825 0.48875 0 0 Z " fill="#4E4E4E" transform="translate(389,233)"/>
<path d="M0 0 C0.33 0.99 0.66 1.98 1 3 C-1.31 5.31 -3.62 7.62 -6 10 C-6.66 9.34 -7.32 8.68 -8 8 C-7.50628906 7.59007812 -7.01257813 7.18015625 -6.50390625 6.7578125 C-5.86324219 6.21898437 -5.22257813 5.68015625 -4.5625 5.125 C-3.92441406 4.59132812 -3.28632813 4.05765625 -2.62890625 3.5078125 C-0.89194996 2.0777243 -0.89194996 2.0777243 0 0 Z " fill="#4A4A4A" transform="translate(199,216)"/>
<path d="M0 0 C0.66 0.33 1.32 0.66 2 1 C0.25 4.875 0.25 4.875 -2 6 C-2 5.34 -2 4.68 -2 4 C-2.66 3.67 -3.32 3.34 -4 3 C-2.68 2.01 -1.36 1.02 0 0 Z " fill="#505050" transform="translate(116,205)"/>
</svg>
